<svg xmlns="http://www.w3.org/2000/svg" data-name="Layer 1" viewBox="0 0 32 40" x="0px" y="0px"><title>Text Message</title><path d="M28,3H4A3,3,0,0,0,1,6V22.22A2.78,2.78,0,0,0,3.78,25L3,28.8a1,1,0,0,0,1.51,1L12.33,25H28a3,3,0,0,0,3-3V6A3,3,0,0,0,28,3ZM20,20H7a1,1,0,0,1,0-2H20a1,1,0,0,1,0,2Zm5-5H7a1,1,0,0,1,0-2H25a1,1,0,0,1,0,2Zm0-5H7A1,1,0,0,1,7,8H25a1,1,0,0,1,0,2Z"/><text x="0" y="47" fill="#000000" font-size="5px" font-weight="bold" font-family="'Helvetica Neue', Helvetica, Arial-Unicode, Arial, Sans-serif">Created by Yoyon Pujiyono</text><text x="0" y="52" fill="#000000" font-size="5px" font-weight="bold" font-family="'Helvetica Neue', Helvetica, Arial-Unicode, Arial, Sans-serif">from the Noun Project</text></svg>