<svg width="61" height="76" viewBox="0 0 61 76" fill="none" xmlns="http://www.w3.org/2000/svg">
<path d="M4.106 15.15V20.195H9.62L4.106 15.15ZM23.289 17.672L19.888 3.592H14.139L22.878 17.849C23.056 17.731 23.172 17.731 23.289 17.672ZM19.945 19.433L12.612 3.594H4.693L19.591 19.727C19.711 19.608 19.828 19.491 19.945 19.433ZM15.78 20.253L4.106 4.18V13.037L14.02 20.253H15.78ZM26.984 16.617L26.457 3.535H21.705L26.517 16.617H26.984ZM30.563 16.266H30.796L32.79 3.536H28.332L30.326 16.266H30.563ZM57.079 20.253V15.208L51.623 20.253H57.079ZM38.248 17.79L46.989 3.535H41.239L37.838 17.614C38.015 17.731 38.131 17.79 38.248 17.79ZM41.65 19.667L56.492 3.535H48.573L41.239 19.432C41.357 19.491 41.476 19.608 41.65 19.667ZM47.165 20.253L57.079 13.037V4.18L45.404 20.253H47.165ZM39.421 3.535H34.67L34.143 16.558C34.26 16.558 34.436 16.617 34.554 16.617C34.611 16.675 39.421 3.535 39.421 3.535Z" fill="#3C2E29"/>
<path d="M58.78 44.716C58.663 48.764 57.9 52.52 56.433 55.862C55.319 58.383 53.852 60.673 51.975 62.784C43.703 72.112 31.149 73.989 30.621 74.106H30.327C28.978 73.872 17.012 71.702 9.15 62.841C4.751 57.913 2.462 51.87 2.344 44.774V1.833H58.779L58.78 44.716ZM0.820999 0.309V44.716C0.996999 52.167 3.402 58.561 8.037 63.782C16.25 73.05 28.685 75.337 30.095 75.571L30.272 75.632L30.565 75.692L30.858 75.632C31.386 75.571 44.585 73.52 53.15 63.841C55.086 61.612 56.67 59.206 57.842 56.567C59.425 52.989 60.246 49.059 60.307 44.835V0.31L0.820999 0.309Z" fill="#3C2E29"/>
<path d="M20.355 39.905H21.939V41.489H20.355V39.905ZM11.732 38.79V38.909H16.25V33.745L16.073 33.805C15.78 33.921 15.428 33.981 15.076 34.039H14.842C14.079 34.039 13.318 33.863 12.613 33.57C12.554 33.511 12.496 33.511 12.379 33.453C12.145 33.335 11.909 33.276 11.616 33.276C10.559 33.276 9.73801 34.156 9.73801 35.153C9.73801 35.799 9.85601 35.974 10.619 36.854C11.146 37.383 11.498 38.028 11.732 38.79ZM14.725 39.905V41.489H16.25V39.905" fill="#3C2E29"/>
<path d="M11.615 31.812C12.084 31.812 12.553 31.929 13.022 32.105C13.081 32.105 13.14 32.163 13.199 32.222C13.727 32.455 14.255 32.574 14.842 32.574H15.019C15.665 32.515 16.192 32.163 16.543 31.577H17.307C17.6 32.163 18.187 32.515 18.831 32.574H19.006C19.535 32.574 20.064 32.456 20.532 32.28C20.649 32.222 20.766 32.163 20.942 32.105C21.353 31.929 21.763 31.87 22.233 31.87C24.051 31.87 25.577 33.337 25.577 35.214C25.577 36.093 25.107 36.975 24.346 37.794L24.286 37.854C23.817 38.381 23.523 39.028 23.406 39.672C23.406 39.789 23.406 39.906 23.347 40.025V40.435C23.347 40.847 23.463 41.256 23.64 41.609V42.431H10.207V41.666C10.383 41.197 10.5 40.728 10.5 40.199C10.5 40.023 10.5 39.847 10.441 39.672C10.324 38.967 10.031 38.322 9.561 37.794L9.501 37.737C8.681 36.915 8.271 35.976 8.271 35.155C8.271 33.276 9.797 31.751 11.615 31.812ZM16.896 28.643C17.052 28.643 17.202 28.672 17.345 28.732C17.488 28.791 17.616 28.877 17.726 28.987C17.834 29.096 17.919 29.223 17.98 29.367C18.04 29.512 18.07 29.661 18.07 29.817C18.07 30.462 17.542 30.99 16.896 30.99C16.25 30.99 15.723 30.462 15.723 29.817C15.723 29.17 16.25 28.643 16.896 28.643ZM22.762 50.815C21.881 50.815 21.118 50.169 21.118 48.823C21.118 46.827 22.409 45.948 23.64 45.948C23.993 45.948 24.227 46.065 24.344 46.065L24.284 46.241C24.167 46.182 24.051 46.182 23.815 46.182C22.817 46.182 22.054 47.001 22.054 48.645C22.054 49.702 22.348 50.464 22.992 50.464C23.461 50.464 23.638 49.936 23.638 49.526C23.638 48.823 23.228 48.175 22.641 48.175H22.464V48.06C22.641 47.943 22.874 47.767 23.285 47.767C23.872 47.767 24.458 48.293 24.458 48.998C24.462 50.231 23.758 50.815 22.762 50.815ZM18.714 50.815C17.833 50.815 17.071 50.169 17.071 48.823C17.071 46.827 18.361 45.948 19.592 45.948C19.946 45.948 20.18 46.065 20.296 46.065L20.237 46.241C20.12 46.182 20.003 46.182 19.768 46.182C18.77 46.182 18.007 47.001 18.007 48.645C18.007 49.702 18.301 50.464 18.945 50.464C19.414 50.464 19.59 49.936 19.59 49.526C19.59 48.823 19.181 48.175 18.594 48.175H18.417V48.06C18.594 47.943 18.828 47.767 19.238 47.767C19.825 47.767 20.411 48.293 20.411 48.998C20.414 50.231 19.652 50.815 18.714 50.815ZM15.136 48.882C14.783 49.762 14.665 49.82 14.432 50.876L14.372 50.936C14.02 50.817 13.845 50.641 13.609 50.407C13.668 49.88 14.607 48.884 15.252 47.886C15.606 47.359 15.663 47.066 15.723 46.828H14.315C13.494 46.828 13.552 46.828 13.318 47.416L13.142 47.357C13.201 46.947 13.258 46.535 13.435 46.125H16.369L16.429 46.185C16.309 46.946 15.956 47.296 15.136 48.882ZM10.207 43.425V42.956H23.582V43.425H10.207ZM23.582 43.895V44.366H10.207V43.895H23.582ZM12.144 50.7H9.621V50.524L10.091 50.464C10.384 50.403 10.384 50.348 10.384 49.583V47.647C10.384 46.766 10.325 46.708 10.208 46.708C10.149 46.708 10.032 46.708 9.975 46.768L9.504 46.827L9.445 46.651C9.738 46.534 11.088 46.065 11.205 46.005L11.322 46.065V49.585C11.322 50.405 11.322 50.466 11.675 50.466L12.145 50.526L12.144 50.7ZM4.106 44.774C4.282 51.403 6.394 57.094 10.5 61.669C17.013 69.003 26.633 71.524 29.742 72.171V21.955H4.106V44.774Z" fill="#3C2E29"/>
<path d="M39.715 34.157C40.068 34.157 40.302 34.098 40.536 34.04C40.77 33.982 41.005 33.922 41.299 33.922C41.769 33.922 42.237 34.04 42.706 34.216V33.629C42.237 33.454 41.768 33.336 41.299 33.396C40.946 33.396 40.712 33.455 40.479 33.513C40.244 33.572 40.068 33.629 39.775 33.629C39.364 33.689 38.895 33.629 38.484 33.513V34.099C38.835 34.157 39.245 34.215 39.715 34.157ZM39.715 37.207C40.068 37.207 40.302 37.148 40.536 37.09C40.77 37.032 41.005 36.974 41.299 36.974C41.769 36.974 42.237 37.09 42.706 37.267V36.681C42.237 36.504 41.768 36.446 41.299 36.446C40.946 36.446 40.712 36.505 40.479 36.563C40.244 36.622 40.068 36.681 39.775 36.681C39.364 36.74 38.895 36.681 38.484 36.563V37.15C38.835 37.207 39.305 37.207 39.715 37.207ZM39.715 35.683C40.068 35.683 40.302 35.623 40.536 35.565C40.77 35.507 41.005 35.448 41.299 35.448C41.769 35.448 42.237 35.565 42.706 35.741V35.155C42.237 34.979 41.768 34.862 41.299 34.92C40.946 34.92 40.712 34.98 40.479 35.038C40.244 35.098 40.068 35.155 39.775 35.155C39.364 35.214 38.895 35.155 38.484 35.038V35.624C38.835 35.683 39.305 35.683 39.715 35.683ZM39.715 38.731C40.068 38.731 40.302 38.671 40.536 38.614C40.77 38.557 41.005 38.497 41.299 38.497C41.769 38.497 42.237 38.614 42.706 38.789V38.203C42.237 38.027 41.768 37.91 41.299 37.969C40.946 37.969 40.712 38.028 40.479 38.086C40.244 38.146 40.068 38.203 39.775 38.203C39.364 38.263 38.895 38.203 38.484 38.086V38.672C38.835 38.731 39.245 38.731 39.715 38.731ZM39.715 40.198C40.068 40.198 40.302 40.139 40.536 40.081C40.77 40.023 41.005 39.964 41.299 39.964C41.769 39.964 42.237 40.081 42.706 40.257V39.671C42.237 39.495 41.768 39.438 41.299 39.438C40.946 39.438 40.712 39.497 40.479 39.555C40.244 39.614 40.068 39.671 39.775 39.671C39.364 39.731 38.895 39.671 38.484 39.555V40.141C38.835 40.257 39.305 40.257 39.715 40.198ZM39.715 41.725C40.068 41.725 40.302 41.665 40.536 41.608C40.77 41.548 41.005 41.491 41.299 41.491C41.769 41.491 42.237 41.608 42.706 41.784V41.198C42.237 41.022 41.768 40.964 41.299 40.964C40.946 40.964 40.712 41.024 40.479 41.081C40.244 41.141 40.068 41.198 39.775 41.198C39.364 41.257 38.895 41.198 38.484 41.081V41.667C38.835 41.725 39.305 41.782 39.715 41.725ZM17.54 39.905H19.124V41.489H17.54V39.905ZM22.058 38.79C22.292 38.028 22.645 37.383 23.172 36.796C23.289 36.68 24.053 35.74 24.053 35.096C24.053 34.039 23.172 33.219 22.175 33.219C21.941 33.219 21.705 33.277 21.472 33.335C21.412 33.335 21.355 33.395 21.237 33.453L21.061 33.57C20.415 33.863 19.711 33.98 18.95 33.98H18.656C18.304 33.98 18.011 33.863 17.659 33.745L17.483 33.687V38.909H21.941L22.058 38.79ZM11.851 39.905H13.435V41.489H11.851V39.905Z" fill="#3C2E29"/>
<path d="M39.892 43.837C41.299 43.602 42.532 43.719 43.529 44.307V43.837L43.412 43.776C43.179 43.6 42.532 43.249 41.301 43.19H40.891C40.598 43.19 40.304 43.249 39.953 43.307C39.132 43.483 38.193 43.423 37.079 43.19L36.902 43.13V32.807C36.726 32.748 36.549 32.748 36.433 32.69V43.483C37.778 43.895 38.952 44.014 39.892 43.837Z" fill="#3C2E29"/>
<path d="M48.045 40.081C48.279 40.141 48.515 40.198 48.866 40.198C49.335 40.257 49.746 40.198 50.216 40.139V39.553C49.746 39.669 49.335 39.669 48.925 39.669C48.632 39.669 48.398 39.61 48.222 39.553C47.988 39.493 47.752 39.436 47.401 39.436C46.932 39.436 46.463 39.495 45.993 39.669V40.255C46.463 40.079 46.932 39.962 47.401 39.962C47.575 40.022 47.812 40.022 48.045 40.081ZM39.892 44.833C41.299 44.6 42.532 44.716 43.529 45.305V44.833L43.47 44.774L43.41 44.714C42.472 44.188 41.357 44.012 40.008 44.245C38.952 44.421 37.661 44.305 36.137 43.835L35.96 43.774V33.1C35.784 33.041 35.667 32.983 35.491 32.923V44.129C37.251 44.833 38.719 45.009 39.892 44.833Z" fill="#3C2E29"/>
<path d="M48.69 43.837C49.628 44.014 50.801 43.895 52.151 43.483V32.69C51.975 32.749 51.797 32.807 51.681 32.807V43.073L51.504 43.132C50.391 43.366 49.451 43.425 48.63 43.249C48.336 43.19 47.984 43.132 47.692 43.132H47.282C46.109 43.192 45.464 43.542 45.17 43.719L45.054 43.778V44.249C46.052 43.719 47.282 43.542 48.69 43.837Z" fill="#3C2E29"/>
<path d="M48.045 38.559C48.279 38.616 48.515 38.673 48.866 38.673C49.335 38.733 49.746 38.673 50.216 38.614V38.028C49.746 38.145 49.335 38.145 48.925 38.145C48.632 38.145 48.398 38.085 48.222 38.028C47.988 37.969 47.752 37.911 47.401 37.911C46.932 37.911 46.463 37.97 45.993 38.145V38.731C46.463 38.557 46.932 38.439 47.401 38.439C47.575 38.498 47.812 38.559 48.045 38.559Z" fill="#3C2E29"/>
<path d="M34.963 32.279L35.256 32.397C35.491 32.455 35.667 32.573 35.902 32.631V32.044L36.196 32.161C36.43 32.221 36.665 32.278 36.841 32.337V31.751L37.136 31.811C37.899 31.987 38.659 32.044 39.246 32.044C39.422 32.044 39.657 31.985 39.833 31.985C40.303 31.926 40.713 31.867 41.123 31.867C42.155 31.862 43.095 32.155 43.939 32.747V45.712H43.235C42.297 45.184 41.182 45.066 39.891 45.303C38.6 45.534 37.017 45.303 35.079 44.538L35.02 44.479L34.963 32.279ZM44.761 48.764L45.874 48.94L45.054 49.704L45.231 50.817L44.233 50.29L43.236 50.817L43.412 49.704L42.591 48.94L43.705 48.764L44.175 47.768L44.761 48.764ZM44.583 42.194V32.749C45.43 32.156 46.367 31.863 47.399 31.869C47.81 31.869 48.279 31.929 48.69 31.987C48.866 31.987 49.042 32.046 49.216 32.046C49.862 32.106 50.567 31.987 51.328 31.813L51.621 31.753V32.339L52.267 32.163L52.56 32.046V32.633C52.736 32.574 52.971 32.516 53.206 32.399L53.559 32.281V44.484L53.382 44.543C51.446 45.246 49.805 45.539 48.572 45.308C47.281 45.072 46.108 45.189 45.228 45.717H44.523L44.583 42.194ZM49.98 49.469L48.983 48.94L47.986 49.469L48.162 48.354L47.399 47.591L48.513 47.415L48.983 46.417L49.453 47.415L50.567 47.591L49.746 48.354L49.98 49.469ZM40.536 49.469L39.539 48.94L38.541 49.469L38.719 48.354L37.955 47.591L39.069 47.415L39.539 46.417L40.008 47.415L41.122 47.591L40.36 48.354L40.536 49.469ZM31.443 72.171C34.552 71.525 44.172 69.003 50.684 61.669C54.789 57.096 56.902 51.346 57.079 44.774V21.954H31.443V72.171Z" fill="#3C2E29"/>
<path d="M48.69 44.833C49.863 45.067 51.33 44.833 53.088 44.188V32.982C52.912 33.041 52.735 33.099 52.618 33.158V43.836L52.442 43.894C50.917 44.365 49.627 44.482 48.571 44.306C47.221 44.072 46.049 44.189 45.168 44.775C45.109 44.775 45.109 44.834 45.109 44.834L45.05 44.894V45.246C46.052 44.716 47.282 44.54 48.69 44.833Z" fill="#3C2E29"/>
</svg>
